<svg xmlns="http://www.w3.org/2000/svg" version="1.1" xmlns:xlink="http://www.w3.org/1999/xlink" xmlns:svgjs="http://svgjs.com/svgjs" width="1440" height="560" preserveAspectRatio="none" viewBox="0 0 1440 560"><g mask="url(&quot;#SvgjsMask5920&quot;)" fill="none"><rect width="1440" height="560" x="0" y="0" fill="url(#SvgjsLinearGradient5921)"></rect><path d="M26.11 399.24a5.6 5.6 0 1 0 11.2 0.07 5.6 5.6 0 1 0-11.2-0.07zM42.11 399.34a5.6 5.6 0 1 0 11.2 0.07 5.6 5.6 0 1 0-11.2-0.07zM58.11 399.44a5.6 5.6 0 1 0 11.2 0.07 5.6 5.6 0 1 0-11.2-0.07zM74.11 399.54a5.6 5.6 0 1 0 11.2 0.07 5.6 5.6 0 1 0-11.2-0.07z" stroke="rgba(0, 21, 255, 1)" stroke-width="2.28" stroke-dasharray="2, 2"></path><rect width="184" height="184" clip-path="url(&quot;#SvgjsClipPath5922&quot;)" x="-41.83" y="423.33" fill="url(#SvgjsPattern5923)" transform="rotate(227.09, 50.17, 515.33)"></rect><rect width="290.72" height="290.72" clip-path="url(&quot;#SvgjsClipPath5924&quot;)" x="95.79" y="14.86" fill="url(#SvgjsPattern5925)" transform="rotate(226.45, 241.15, 160.22)"></rect><rect width="288" height="288" clip-path="url(&quot;#SvgjsClipPath5926&quot;)" x="48.44" y="370.18" fill="url(#SvgjsPattern5927)" transform="rotate(36.63, 192.44, 514.18)"></rect><rect width="264" height="264" clip-path="url(&quot;#SvgjsClipPath5928&quot;)" x="-15.24" y="-8.26" fill="url(#SvgjsPattern5929)" transform="rotate(66.31, 116.76, 123.74)"></rect><path d="M489.94 77.78L478.81 71.46 482.53 59.21 471.39 52.89 475.11 40.63 463.97 34.31 467.69 22.06" stroke="rgba(255, 1, 0, 1)" stroke-width="2.23" stroke-dasharray="3, 3"></path><path d="M489.57 335.54L484.05 323.98 494.11 316.06 488.58 304.5 498.64 296.58 493.11 285.02 503.17 277.1M497.37 337.35L491.84 325.8 501.9 317.87 496.37 306.32 506.43 298.39 500.91 286.84 510.96 278.91M505.16 339.16L499.63 327.61 509.69 319.68 504.16 308.13 514.22 300.2 508.7 288.65 518.76 280.72" stroke="rgba(0, 21, 255, 1)" stroke-width="1" stroke-dasharray="2, 2"></path><rect width="312" height="312" clip-path="url(&quot;#SvgjsClipPath5930&quot;)" x="1134.64" y="-81.28" fill="url(#SvgjsPattern5931)" transform="rotate(81.44, 1290.64, 74.72)"></rect><rect width="216" height="216" clip-path="url(&quot;#SvgjsClipPath5932&quot;)" x="163.02" y="-73.77" fill="url(#SvgjsPattern5933)" transform="rotate(232.94, 271.02, 34.23)"></rect><path d="M548.79 293.48a5.6 5.6 0 1 0 10.79-3.01 5.6 5.6 0 1 0-10.79 3.01zM564.2 289.18a5.6 5.6 0 1 0 10.79-3.01 5.6 5.6 0 1 0-10.79 3.01zM579.61 284.88a5.6 5.6 0 1 0 10.79-3.01 5.6 5.6 0 1 0-10.79 3.01zM595.03 280.58a5.6 5.6 0 1 0 10.78-3.01 5.6 5.6 0 1 0-10.78 3.01zM522.27 317.49a5.6 5.6 0 1 0 10.79-3.01 5.6 5.6 0 1 0-10.79 3.01zM537.68 313.19a5.6 5.6 0 1 0 10.79-3.01 5.6 5.6 0 1 0-10.79 3.01zM553.09 308.89a5.6 5.6 0 1 0 10.79-3.01 5.6 5.6 0 1 0-10.79 3.01zM568.5 304.59a5.6 5.6 0 1 0 10.79-3.01 5.6 5.6 0 1 0-10.79 3.01zM495.75 341.5a5.6 5.6 0 1 0 10.78-3.01 5.6 5.6 0 1 0-10.78 3.01zM511.16 337.2a5.6 5.6 0 1 0 10.79-3.01 5.6 5.6 0 1 0-10.79 3.01zM526.57 332.9a5.6 5.6 0 1 0 10.79-3.01 5.6 5.6 0 1 0-10.79 3.01zM541.98 328.6a5.6 5.6 0 1 0 10.79-3.01 5.6 5.6 0 1 0-10.79 3.01z" stroke="rgba(0, 244, 16, 1)" stroke-width="1.18" stroke-dasharray="3, 2"></path><rect width="307.2" height="307.2" clip-path="url(&quot;#SvgjsClipPath5934&quot;)" x="1178.12" y="227.08" fill="url(#SvgjsPattern5935)" transform="rotate(12.46, 1331.72, 380.68)"></rect><rect width="269.92" height="269.92" clip-path="url(&quot;#SvgjsClipPath5936&quot;)" x="849.51" y="249.29" fill="url(#SvgjsPattern5937)" transform="rotate(119.03, 984.47, 384.25)"></rect></g><defs><mask id="SvgjsMask5920"><rect width="1440" height="560" fill="#ffffff"></rect></mask><linearGradient x1="15.28%" y1="139.29%" x2="84.72%" y2="-39.29%" gradientUnits="userSpaceOnUse" id="SvgjsLinearGradient5921"><stop stop-color="#0e2a47" offset="0"></stop><stop stop-color="rgba(13, 1, 16, 1)" offset="0.81"></stop><stop stop-color="rgba(0, 23, 53, 1)" offset="1"></stop></linearGradient><pattern x="0" y="0" width="11.5" height="11.5" patternUnits="userSpaceOnUse" id="SvgjsPattern5923"><path d="M0 11.5L5.75 0L11.5 11.5" stroke="rgba(245, 205, 0, 1)" fill="none"></path></pattern><clipPath id="SvgjsClipPath5922"><circle r="46" cx="50.17" cy="515.33"></circle></clipPath><pattern x="0" y="0" width="290.72" height="6.32" patternUnits="userSpaceOnUse" id="SvgjsPattern5925"><rect width="290.72" height="3.16" x="0" y="0" fill="rgba(255, 1, 0, 1)"></rect><rect width="290.72" height="3.16" x="0" y="3.16" fill="rgba(0, 0, 0, 0)"></rect></pattern><clipPath id="SvgjsClipPath5924"><circle r="72.68" cx="241.15" cy="160.22"></circle></clipPath><pattern x="0" y="0" width="288" height="6" patternUnits="userSpaceOnUse" id="SvgjsPattern5927"><rect width="288" height="3" x="0" y="0" fill="rgba(0, 21, 255, 1)"></rect><rect width="288" height="3" x="0" y="3" fill="rgba(0, 0, 0, 0)"></rect></pattern><clipPath id="SvgjsClipPath5926"><circle r="72" cx="192.44" cy="514.18"></circle></clipPath><pattern x="0" y="0" width="6" height="6" patternUnits="userSpaceOnUse" id="SvgjsPattern5929"><path d="M3 1L3 5M1 3L5 3" stroke="rgba(245, 205, 0, 1)" fill="none" stroke-width="1"></path></pattern><clipPath id="SvgjsClipPath5928"><circle r="66" cx="116.76" cy="123.74"></circle></clipPath><pattern x="0" y="0" width="6" height="6" patternUnits="userSpaceOnUse" id="SvgjsPattern5931"><path d="M3 1L3 5M1 3L5 3" stroke="rgba(0, 21, 255, 1)" fill="none" stroke-width="1.21"></path></pattern><clipPath id="SvgjsClipPath5930"><circle r="78" cx="1290.64" cy="74.72"></circle></clipPath><pattern x="0" y="0" width="216" height="6" patternUnits="userSpaceOnUse" id="SvgjsPattern5933"><rect width="216" height="3" x="0" y="0" fill="rgba(245, 205, 0, 1)"></rect><rect width="216" height="3" x="0" y="3" fill="rgba(0, 0, 0, 0)"></rect></pattern><clipPath id="SvgjsClipPath5932"><circle r="54" cx="271.02" cy="34.23"></circle></clipPath><pattern x="0" y="0" width="307.2" height="9.6" patternUnits="userSpaceOnUse" id="SvgjsPattern5935"><rect width="307.2" height="4.8" x="0" y="0" fill="rgba(0, 21, 255, 1)"></rect><rect width="307.2" height="4.8" x="0" y="4.8" fill="rgba(0, 0, 0, 0)"></rect></pattern><clipPath id="SvgjsClipPath5934"><circle r="76.8" cx="1331.72" cy="380.68"></circle></clipPath><pattern x="0" y="0" width="269.92" height="9.64" patternUnits="userSpaceOnUse" id="SvgjsPattern5937"><rect width="269.92" height="4.82" x="0" y="0" fill="rgba(255, 1, 0, 1)"></rect><rect width="269.92" height="4.82" x="0" y="4.82" fill="rgba(0, 0, 0, 0)"></rect></pattern><clipPath id="SvgjsClipPath5936"><circle r="67.48" cx="984.47" cy="384.25"></circle></clipPath></defs></svg>