<svg xmlns="http://www.w3.org/2000/svg" version="1.1" xmlns:xlink="http://www.w3.org/1999/xlink" xmlns:svgjs="http://svgjs.com/svgjs" width="1440" height="560" preserveAspectRatio="none" viewBox="0 0 1440 560"><g mask="url(&quot;#SvgjsMask5908&quot;)" fill="none"><rect width="1440" height="560" x="0" y="0" fill="url(#SvgjsLinearGradient5909)"></rect><rect width="288" height="288" clip-path="url(&quot;#SvgjsClipPath5910&quot;)" x="340.05" y="203.83" fill="url(#SvgjsPattern5911)" transform="rotate(218.22, 484.05, 347.83)"></rect><circle r="91.28150754636869" cx="565.01" cy="251.91" fill="rgba(0, 21, 255, 1)"></circle><path d="M1058.12 311.46 L1072.64 147.83999999999997L1153.9202299136336 318.19022991363346z" stroke="rgba(0, 244, 16, 1)" stroke-width="1.45" stroke-dasharray="2, 2"></path><circle r="46.666666666666664" cx="248.11" cy="8.55" fill="rgba(245, 205, 0, 1)"></circle><path d="M994.17 160.65a5.6 5.6 0 1 0 8.73 7.02 5.6 5.6 0 1 0-8.73-7.02zM1006.64 170.68a5.6 5.6 0 1 0 8.73 7.01 5.6 5.6 0 1 0-8.73-7.01zM1019.12 180.7a5.6 5.6 0 1 0 8.73 7.02 5.6 5.6 0 1 0-8.73-7.02zM1031.59 190.73a5.6 5.6 0 1 0 8.73 7.01 5.6 5.6 0 1 0-8.73-7.01z" fill="rgba(0, 244, 16, 1)"></path><path d="M634.26 197.52L621.51 196.29 619.91 183.59 607.16 182.37 605.55 169.66 592.8 168.44 591.2 155.74" stroke="rgba(0, 21, 255, 1)" stroke-width="1" stroke-dasharray="2, 2"></path><circle r="86.06328751595471" cx="778.86" cy="419.69" stroke="rgba(245, 205, 0, 1)" stroke-width="1" stroke-dasharray="2, 2"></circle><rect width="120" height="120" clip-path="url(&quot;#SvgjsClipPath5912&quot;)" x="187.24" y="267.94" fill="url(#SvgjsPattern5913)" transform="rotate(127.2, 247.24, 327.94)"></rect><rect width="60" height="60" clip-path="url(&quot;#SvgjsClipPath5914&quot;)" x="441.64" y="225.97" fill="url(#SvgjsPattern5915)" transform="rotate(81.36, 471.64, 255.97)"></rect><rect width="240" height="240" clip-path="url(&quot;#SvgjsClipPath5916&quot;)" x="1279.74" y="430.99" fill="url(#SvgjsPattern5917)" transform="rotate(179.2, 1399.74, 550.99)"></rect><rect width="60" height="60" clip-path="url(&quot;#SvgjsClipPath5918&quot;)" x="229.59" y="268.91" fill="url(#SvgjsPattern5919)" transform="rotate(289.98, 259.59, 298.91)"></rect><path d="M147.41 52.56L160.15 51.18 164.29 63.29 177.02 61.91 181.17 74.03 193.9 72.64 198.05 84.76M143.12 59.31L155.85 57.93 160 70.05 172.73 68.66 176.88 80.78 189.61 79.39 193.75 91.51M138.83 66.06L151.56 64.68 155.71 76.8 168.44 75.41 172.58 87.53 185.32 86.14 189.46 98.26" stroke="rgba(245, 205, 0, 1)" stroke-width="2.71" stroke-dasharray="4, 4"></path></g><defs><mask id="SvgjsMask5908"><rect width="1440" height="560" fill="#ffffff"></rect></mask><linearGradient x1="15.28%" y1="139.29%" x2="84.72%" y2="-39.29%" gradientUnits="userSpaceOnUse" id="SvgjsLinearGradient5909"><stop stop-color="#0e2a47" offset="0"></stop><stop stop-color="rgba(13, 1, 16, 1)" offset="0.81"></stop><stop stop-color="rgba(0, 23, 53, 1)" offset="1"></stop></linearGradient><pattern x="0" y="0" width="6" height="6" patternUnits="userSpaceOnUse" id="SvgjsPattern5911"><path d="M3 1L3 5M1 3L5 3" stroke="rgba(255, 1, 0, 1)" fill="none" stroke-width="1.98"></path></pattern><clipPath id="SvgjsClipPath5910"><circle r="72" cx="484.05" cy="347.83"></circle></clipPath><pattern x="0" y="0" width="6" height="6" patternUnits="userSpaceOnUse" id="SvgjsPattern5913"><path d="M0 6L3 0L6 6" stroke="rgba(0, 21, 255, 1)" fill="none"></path></pattern><clipPath id="SvgjsClipPath5912"><circle r="30" cx="247.24" cy="327.94"></circle></clipPath><pattern x="0" y="0" width="6" height="6" patternUnits="userSpaceOnUse" id="SvgjsPattern5915"><path d="M0 6L3 0L6 6" stroke="rgba(0, 21, 255, 1)" fill="none"></path></pattern><clipPath id="SvgjsClipPath5914"><circle r="15" cx="471.64" cy="255.97"></circle></clipPath><pattern x="0" y="0" width="6" height="6" patternUnits="userSpaceOnUse" id="SvgjsPattern5917"><path d="M0 6L3 0L6 6" stroke="rgba(0, 21, 255, 1)" fill="none"></path></pattern><clipPath id="SvgjsClipPath5916"><circle r="60" cx="1399.74" cy="550.99"></circle></clipPath><pattern x="0" y="0" width="6" height="6" patternUnits="userSpaceOnUse" id="SvgjsPattern5919"><path d="M0 6L3 0L6 6" stroke="rgba(245, 205, 0, 1)" fill="none"></path></pattern><clipPath id="SvgjsClipPath5918"><circle r="15" cx="259.59" cy="298.91"></circle></clipPath></defs></svg>